<svg version="1" xmlns="http://www.w3.org/2000/svg" width="682.667" height="682.667" viewBox="0 0 512.000000 512.000000"><path d="M.5 96.7c.7 22.7 6.4 37.5 19.2 49.8 5.9 5.6 18.6 12.1 27.3 13.9 7.5 1.5 7.2.2 5.1 16.9-1.4 11.5-1.8 36-.7 43.9.3 2.7.9 6.9 1.2 9.5 1.6 13.1 6.5 31.5 12.1 45.3 11.7 29.3 29 54.6 55.7 81.8 6.1 6.2 11.4 11.9 11.9 12.8 1.4 2.5-1.6 5.8-11.1 12.4-10.4 7.1-12.5 9.9-9.7 13 3.3 3.7 10 5 25 5 11.9 0 21.2-.6 28.2-1.9 6.6-1.3 9.9-.7 32.8 5.4 11.6 3 22.4 5.8 24 6.1 1.7.3 4.8 1 7 1.5 2.2.6 4.7 1.3 5.5 1.4.8.2 6.8 1.5 13.3 2.9 6.5 1.5 13.4 2.9 15.4 3.2 1.9.3 4.3.7 5.2.9.9.1 5.2.8 9.6 1.5 4.4.6 9.1 1.3 10.4 1.5 1.4.3 5.4.7 9 1 3.6.3 8.4.8 10.6 1 22.6 2.5 113.1 2.5 127.9 0 11.1-1.9 19.4-4.4 27.4-8.1 22-10.1 36.7-27.8 44-52.9 2-6.7 2.4-9 4.2-21.4 1.1-8.5.4-36.6-1.4-48.1-2.1-14.2-2.4-15.4-4.6-23.6-8.4-31.1-24.3-46.1-53.1-50.1-10.4-1.4-55.1-.2-79.9 2.2-14.5 1.4-23.3 2.2-34.5 3-4.4.4-13.4 1.3-20 2.1-6.6.7-14.2 1.6-16.9 1.9-2.6.2-6.5.7-8.5.9-2 .3-7.2 1-11.7 1.6-4.4.6-8.9 1.2-10 1.4-1 .2-4.4.7-7.5 1-3.1.4-6.7.9-8 1.1-1.3.3-4.1.7-6.4 1-2.2.3-5.1.8-6.5 1-1.4.2-4.3.7-6.5 1-4.1.6-5.8.9-15.5 2.5-3 .5-7.5 1.2-10 1.5-2.4.4-4.7.8-5 1-.3.2-3.4.6-7 1s-6.7.8-7 1c-3 1.8-47.8 2.8-55 1.2-1.9-.4-5.7-1.2-8.5-1.8-6.7-1.5-15.9-5.9-21.7-10.4-16.8-13.1-26.3-50.1-18.2-70.4 1.2-3.1 2.2-4.1 3.9-4.1 3.5 0 19.1-4.8 25.4-7.8 19.7-9.4 31.4-26.7 32.2-47.7.3-9.9.3-9.9-3.5-6.1-3.8 3.6-9.2 6.5-14.5 7.7-2.5.6-4.8.2-8.5-1.2-13.5-5.3-25.1-2.7-38 8.6-1.6 1.4-3 2.5-3.1 2.5-.1 0-.3-1.9-.3-4.3-.2-10.5-7.4-18.4-20.4-22.6-5.9-1.9-10.6-1.5-22.2 1.9-15.4 4.6-23.4 3.5-34.3-4.6C2.6 86.1.9 85 .6 85c-.3 0-.3 5.3-.1 11.7z"/></svg>